<svg xmlns="http://www.w3.org/2000/svg" version="1.1" xmlns:xlink="http://www.w3.org/1999/xlink" xmlns:svgjs="http://svgjs.com/svgjs" width="128" height="128"><svg width="128" height="128" xmlns="http://www.w3.org/2000/svg" xml:space="preserve"><path d="M58.191 127.739C25.588 124.802 0 97.366 0 64 0 28.677 28.677 0 64 0s64 28.677 64 64c0 33.376-25.604 60.82-58.23 63.743l1.643-58.953c4.241.181 8.322 1.768 12.238 4.759 3.918 2.991 7.548 7.29 10.892 12.898 4.203-1.781 6.304-5.129 6.304-10.047 0-4.918-2.101-9.577-6.304-13.979 4.046-2.381 8.097-3.572 12.157-3.572 4.058 0 8.116 1.191 12.176 3.574 0-5.658-2.563-10.585-7.687-14.784-5.125-4.198-12.023-5.42-20.694-3.663l8.048-6.555c-3.527-5.525-8.492-8.289-14.892-8.289v.001c-6.398 0-12.949 4.02-19.651 12.06-6.702-8.04-13.253-12.061-19.653-12.061-6.399 0-11.363 2.764-14.891 8.289l8.049 6.555c-8.671-1.757-15.57-.536-20.694 3.663-5.125 4.199-7.687 9.125-7.687 14.782 4.059-2.381 8.118-3.572 12.176-3.572 4.059 0 8.111 1.191 12.156 3.572-4.203 4.402-6.304 9.061-6.304 13.979 0 4.918 2.101 8.266 6.304 10.047 3.344-5.609 6.975-9.907 10.891-12.898 3.918-2.991 7.998-4.578 12.24-4.759l1.604 58.949Z" fill="hsl(228deg 100% 63%)"></path></svg><style>@media (prefers-color-scheme: light) { :root { filter: none; } }
@media (prefers-color-scheme: dark) { :root { filter: contrast(0.3846153846153846) brightness(4.5); } }
</style></svg>