<svg viewBox="0 0 128 72" xmlns="http://www.w3.org/2000/svg">
  <style>
    text { font: 12px monospace; }
  </style>

  <defs>
    <filter id="cd-shadow">
      <feDropShadow dx="0" dy="1" stdDeviation="2" flood-opacity="0.2"/>
    </filter>
  </defs>

  <rect
    x="10" y="10"
    width="130" height="72"
    rx="6px" ry="6px"
    fill="black"
    stroke="#BABABA"
    stroke-width="0.5"
    filter="url(#cd-shadow)"
  />
  <circle cx="24" cy="23" r="4" fill="#EF534F" stroke="#D55B59" stroke-width="0.5" />
  <circle cx="38" cy="23" r="4" fill="#F0B23D" stroke="#D5A03F" stroke-width="0.5" />
  <circle cx="52" cy="23" r="4" fill="#30BD44" stroke="#2AAA41" stroke-width="0.5" />

  <g aria-label="↪ open -R Documents">
    <path d="M22.484 39.168c-1.272 0-1.944.636-1.944 1.56 0 1.128.792 1.632 1.908 1.632h7.68c-.468.456-1.476 1.68-2.052 2.4l.42.42c1.044-1.236 1.884-2.076 3.012-3.156-1.128-1.08-1.968-1.92-3.012-3.156l-.42.42c.576.72 1.584 1.944 2.052 2.4h-7.644c-.888 0-1.26-.384-1.26-.972 0-.516.336-.936 1.26-.936z" style="fill:#FFFFFF99"/>
    <path d="M38.506 43.553q.352-.387.352-1.658V41.8q-.012-.774-.229-1.219-.217-.445-.738-.445-.627 0-.89.527-.259.527-.259 1.512 0 .75.282 1.213.28.457.797.457.234-.006.375-.065.146-.064.31-.228zm-.691 1.482q-1.307 0-1.928-.726-.621-.733-.621-2.028 0-3.328 2.537-3.328.844 0 1.365.293.528.287.844.885.346.668.346 1.687 0 .434-.053.82-.053.387-.164.757-.111.369-.31.662-.2.293-.475.515-.27.223-.662.346-.387.117-.868.117z" style="fill:#ff6800"/>
    <path d="M45.045 41.889q0-.856-.176-1.248-.17-.393-.556-.393-.516 0-.78.223-.263.222-.498.685l.012 2.022q.451.691.979.691.351 0 .562-.164.217-.164.334-.603.123-.446.123-1.213zm-3.44-1.22v-.151q0-.516-.128-1.354l1.336-.152q.076.205.117.592.475-.528 1.476-.528 2.14 0 2.14 2.695 0 .522-.042.932-.04.404-.146.791-.106.381-.293.656-.188.276-.463.487-.276.205-.68.31-.404.1-.926.1-.656 0-1.03-.399.005.082.034.323.035.24.047.386v.534q0 .644.082 1.441l-1.453.041q-.082-.668-.082-1.518z" style="fill:#ff6800"/>
    <path d="M49.235 41.45q.796-.141 1.992-.141-.024-.551-.293-.827-.264-.275-.674-.275-.434 0-.715.357-.281.358-.31.885zm1.013-2.432q1.342 0 1.922.814.586.814.586 2.373l-.006.252q-2.566.035-3.515.223.07.486.404.832.34.34.744.34.44 0 .703-.147.27-.146.598-.498l1.043.914q-.246.275-.428.428-.182.152-.457.281-.27.129-.621.176-.352.053-.873.053-1.236 0-1.934-.838-.691-.844-.691-2.244 0-1.307.662-2.133.662-.826 1.863-.826z" style="font-weight:700;fill:#ff6800"/>
    <path d="M55.457 39.568q.252-.228.768-.404.521-.176.99-.176.78 0 1.266.334.492.334.492 1.014v3.035q0 .129.035.229.041.1.14.181.1.082.159.123.064.041.223.123.04.024.064.036l-.68 1.171q-.24-.076-.463-.187-.216-.111-.445-.293-.228-.182-.37-.451-.134-.276-.134-.604v-2.795q0-.357-.105-.527-.1-.176-.375-.176-.3 0-.721.176-.416.17-.768.48V45h-1.47v-4.137q0-.51-.024-.808-.017-.305-.047-.451-.029-.147-.117-.487l1.36-.281q.181.434.222.732z" style="font-weight:700;fill:#ff6800"/>
    <path d="M66.79 41.484h4.61v.914h-4.61z" style="fill:#ffdb00"/>
    <path d="m75.93 41.836.281.44q.246.386.34.538l.287.44q.188.281.31.451.13.17.223.281l.07.065q.06.053.094.088.041.029.1.076.064.047.129.082.07.03.14.047l-.345.785q-.246-.035-.475-.182-.222-.146-.38-.34-.563-.615-1.823-2.736-.451-.047-1.324-.193L73.563 45h-.926v-6.521q0-.58-.03-1.026.92-.088 1.278-.088.498 0 .826.018.334.012.71.07.374.053.638.158.263.1.521.282.264.175.475.433.217.27.351.633.135.357.135.715 0 1.898-1.611 2.162zm.703-2.08q0-.516-.334-.897-.287-.334-.832-.463-.545-.134-1.553-.134-.199 0-.369.006l.012 2.52q.146.028.504.105.357.07.58.105.223.03.44.03.146 0 .286-.018.34-.041.551-.106.211-.07.387-.205.176-.135.252-.363.076-.229.076-.58z" style="fill:#ffdb00"/>
    <path d="M86.342 38.25h-.176q-.199 0-.263.012.005.146.005.504 0 .175-.005.568v.592q0 1.98-.024 4.23.516.018 1.131.018.41 0 .697-.041.293-.041.574-.164.288-.123.493-.37.205-.245.345-.626.07-.188.112-.516.047-.328.047-.58 0-.715-.159-1.383-.152-.674-.433-1.084-.281-.404-.557-.639-.275-.24-.72-.38-.44-.141-1.067-.141Zm-1.4 6.018.006-.827q.011-.738.017-1.77.012-1.036.012-1.845v-.433q0-1.23-.076-1.957.773-.077 1.318-.077 1.178 0 1.922.364.75.357 1.3 1.154.37.539.569 1.277.2.733.2 1.518 0 .557-.124 1.172-.199.99-.82 1.547-.621.55-1.46.627-.45.04-.942.04-.223 0-.903-.023-.68-.017-1.037-.017 0-.188.018-.75z" style="fill:#ffdb00"/>
    <path d="M94.574 43.74q.522-.492.522-1.845v-.106q-.012-.879-.352-1.406-.34-.528-1.072-.528-.445 0-.762.17-.31.17-.486.498-.176.329-.258.75-.076.416-.076.979 0 .867.38 1.353.382.48 1.108.48.334-.005.551-.081.223-.076.445-.264zm-1.007 1.254q-1.172-.006-1.787-.726-.616-.727-.616-1.987 0-.533.07-1.002.077-.474.247-.902.175-.434.433-.744.264-.31.662-.492.399-.188.897-.188.844 0 1.365.293.527.287.844.885.346.668.346 1.687 0 .528-.077.979-.07.445-.246.861-.175.41-.45.703-.27.287-.698.463-.428.17-.979.17z" style="fill:#ffdb00"/>
    <path d="M98.301 41.912q0 .445.07.803.076.357.182.586.105.228.275.392.176.159.323.24.152.083.363.13.21.04.334.052.129.006.31.006h.077q.638 0 1.02-.228.38-.235.638-.662l.738.533q-.012.011-.105.146-.088.13-.17.217-.076.088-.223.24-.146.153-.322.258-.17.1-.399.205-.222.1-.521.158-.299.053-.633.053-.58 0-1.049-.094-.463-.093-.844-.375-.544-.422-.773-1.072-.223-.656-.223-1.588 0-.797.188-1.353.187-.563.568-.891.381-.334.897-.48.521-.153 1.236-.153.809 0 1.342.41.404.31.668.932l-.903.352q-.029-.106-.058-.176-.024-.076-.111-.205-.088-.13-.206-.205-.11-.082-.322-.147-.21-.064-.474-.064-.979 0-1.436.468-.457.47-.457 1.512z" style="fill:#ffdb00"/>
    <path d="M108.473 45.059q-.211-.153-.334-.252-.117-.106-.252-.3-.135-.198-.193-.433-.416.428-.873.668-.457.235-1.067.246h-.053q-.855 0-1.212-.246-.657-.451-.657-.996-.006-.351-.006-1.014 0-.662-.006-1.148 0-.486-.011-1.02-.012-.539-.041-.89-.024-.358-.07-.498l.937-.158q.035.152.058.445.024.287.03.79.011.499.011.892.006.392.006 1.177.006.78.006 1.213.047.264.293.445.147.106.621.106.569-.024.932-.246.018-.012.14-.082.124-.07.17-.1.048-.03.153-.111.111-.082.17-.147.064-.07.14-.181.077-.112.13-.235v-3.96h.925V43.6q.012.357.533.773z" style="fill:#ffdb00"/>
    <path d="M113.858 38.988q.298 0 .51.182.21.176.31.463.1.281.135.533.04.252.04.504v3.064q0 .205.165.37.164.158.375.24l-.358.779q-.17-.035-.334-.117t-.322-.223q-.152-.14-.252-.375-.094-.234-.094-.527v-3.41q0-.586-.375-.586-.462 0-.949 1.06V45h-.826v-4.723q0-.111-.012-.181-.011-.07-.082-.14-.064-.071-.187-.071-.24 0-.522.258-.275.257-.527.808V45h-.826l-.018-4.775q0-.621-.176-1.125l.88-.235q.064.13.117.451.052.323.064.545.21-.363.55-.615.346-.258.657-.258.404 0 .65.27.252.27.252.603.475-.873 1.155-.873z" style="fill:#ffdb00"/>
    <path d="M116.969 41.602q1.87-.012 3.094-.153-.07-.703-.48-1.119-.405-.422-1.009-.422-.72 0-1.16.498-.44.492-.445 1.196zm1.6-2.584q.457 0 .826.128.375.13.62.329.247.199.434.486.188.281.288.557.1.27.158.58.064.31.082.527.017.217.017.428 0 .205-.006.252-2.619.175-4.02.193 0 .727.423 1.195.427.47 1.277.47.563 0 .95-.235.386-.235.609-.545l.72.638q-.129.141-.205.217-.07.076-.304.258-.229.176-.452.281-.222.1-.586.194-.363.088-.755.088-1.272 0-1.94-.832-.662-.832-.662-2.25 0-1.307.662-2.133.662-.826 1.863-.826z" style="fill:#ffdb00"/>
    <path d="M123.38 39.568q.567-.298 1.007-.427.44-.13.914-.13.275 0 .574.089.3.087.563.246.27.158.44.422.175.257.175.568v3.428q0 .129.035.228.041.1.14.182.1.082.159.123.064.04.223.123.017.012.023.018.006 0 .018.005l.023.012-.492.656q-.24-.117-.393-.21-.146-.094-.322-.247-.17-.158-.258-.369-.082-.21-.082-.48v-3.287q0-.3-.31-.463-.305-.164-.645-.164-.264 0-.668.158-.404.152-1.125.498V45l-.926.006v-4.137q0-.51-.023-.808-.018-.305-.047-.452-.03-.146-.117-.486l.937-.217q.112.27.176.662z" style="fill:#ffdb00"/>
    <path d="M130.112 42.44v.234q0 1.347.86 1.435.16.018.634.018.65 0 .902-.14.316-.17.48-.61l.739.328q0 .006-.024.07-.017.059-.035.094l-.04.106q-.03.07-.065.123-.03.052-.082.134-.047.077-.106.141-.058.064-.134.14-.07.071-.165.141-.093.07-.199.13-.427.251-1.26.251-.357 0-.609-.017-.246-.018-.51-.077-.263-.058-.45-.164-.182-.105-.352-.28-.164-.183-.287-.44-.229-.47-.229-1.366v-.252q.012-.316.03-1.142.023-.826.04-1.365h-.082q-.24 0-.48.064l-.117-.855q.187-.07.597-.07h.088v-.686q.006-.48.006-.686l.926.006q0 .54-.012 1.336h.715l1.752-.012h.106v.862h-1.858q-.135 0-.351.011-.211.006-.346.006-.03.692-.053 1.53-.023.832-.03 1.002z" style="fill:#ffdb00"/>
    <path d="M135.79 41.666q-.68-.363-.68-1.254.006-.715.574-1.078.568-.363 1.406-.363.615 0 1.254.21.639.206.973.616l-.662.65q-.229-.263-.663-.433-.427-.176-.82-.176-.498 0-.82.14-.322.141-.322.41 0 .206.082.323.087.117.269.2.252.105.586.228l.568.199q.24.082.516.2.281.11.469.222.193.105.386.263.194.159.305.34.117.182.188.434.07.252.07.557 0 .662-.38 1.083-.382.422-.915.563-.504.117-1.014.117-1.101 0-1.675-.539-.575-.545-.575-1.512l.92.006q0 1.207 1.313 1.207.586 0 1.002-.246.416-.252.416-.709 0-.258-.117-.416-.118-.164-.387-.369-.24-.176-1.12-.451-.872-.275-1.148-.422z" style="fill:#ffdb00"/>
  </g>
</svg>
