<?xml version="1.0" encoding="UTF-8" standalone="no"?>
<svg
   viewBox="0 0 128 72"
   version="1.1"
   id="svg21"
   sodipodi:docname="commands (copy).svg"
   inkscape:version="1.1.1 (3bf5ae0d25, 2021-09-20)"
   xmlns:inkscape="http://www.inkscape.org/namespaces/inkscape"
   xmlns:sodipodi="http://sodipodi.sourceforge.net/DTD/sodipodi-0.dtd"
   xmlns="http://www.w3.org/2000/svg"
   xmlns:svg="http://www.w3.org/2000/svg">
  <sodipodi:namedview
     id="namedview23"
     pagecolor="#ffffff"
     bordercolor="#999999"
     borderopacity="1"
     inkscape:pageshadow="0"
     inkscape:pageopacity="0"
     inkscape:pagecheckerboard="0"
     showgrid="false"
     inkscape:zoom="2.6467896"
     inkscape:cx="59.883869"
     inkscape:cy="89.164626"
     inkscape:window-width="1536"
     inkscape:window-height="960"
     inkscape:window-x="0"
     inkscape:window-y="0"
     inkscape:window-maximized="1"
     inkscape:current-layer="svg21" />
  <style
     id="style2">
    text { font: 12px monospace; }
  </style>
  <defs
     id="defs5">
    <filter
       id="cd-shadow"
       x="-0.0019230769"
       y="-0.0034722222"
       width="1.0038462"
       height="1.0069444">
      <feDropShadow
         dx="0"
         dy="1"
         stdDeviation="2"
         flood-opacity="0.2" />
    </filter>
  </defs>
  <g
     aria-label="↪ open -R Documents"
     id="text19"
     style="font-size:12px;font-family:'FantasqueSansMono Nerd Font';-inkscape-font-specification:'FantasqueSansMono Nerd Font, Normal';fill:#ffdb00">
    <path
       d="m 22.484,39.168 c -1.272,0 -1.944,0.636 -1.944,1.56 0,1.128 0.792,1.632 1.908,1.632 h 7.68 c -0.468,0.456 -1.476,1.68 -2.052,2.4 l 0.42,0.42 c 1.044,-1.236 1.884,-2.076 3.012,-3.156 -1.128,-1.08 -1.968,-1.92 -3.012,-3.156 l -0.42,0.42 c 0.576,0.72 1.584,1.944 2.052,2.4 h -7.644 c -0.888,0 -1.26,-0.384 -1.26,-0.972 0,-0.516 0.336,-0.936 1.26,-0.936 z"
       style="font-size:12px;font-family:'FantasqueSansMono Nerd Font';-inkscape-font-specification:'FantasqueSansMono Nerd Font, Normal';fill:#ffdb00"
       id="path7327" />
    <path
       d="m 38.506081,43.552734 q 0.351562,-0.386718 0.351562,-1.658203 0,0 0,-0.09375 -0.01172,-0.773437 -0.228515,-1.21875 -0.216797,-0.445312 -0.738282,-0.445312 -0.626953,0 -0.890625,0.527343 -0.257812,0.527344 -0.257812,1.511719 0,0.75 0.28125,1.212891 0.28125,0.457031 0.796875,0.457031 0.234375,-0.0059 0.375,-0.06445 0.146484,-0.06445 0.310547,-0.228516 z m -0.691407,1.482422 q -1.30664,0 -1.927734,-0.726562 -0.621094,-0.732422 -0.621094,-2.027344 0,-3.328125 2.53711,-3.328125 0.84375,0 1.365234,0.292969 0.527344,0.287109 0.84375,0.884765 0.345703,0.667969 0.345703,1.6875 0,0.433594 -0.05273,0.820313 -0.05274,0.386719 -0.164063,0.755859 -0.111328,0.369141 -0.310547,0.66211 -0.199218,0.292968 -0.474609,0.515625 -0.269531,0.222656 -0.662109,0.345703 -0.386719,0.117187 -0.867188,0.117187 z"
       style="font-weight:bold;fill:#ff6800"
       id="path7329" />
    <path
       d="m 45.045143,41.888672 q 0,-0.855469 -0.175781,-1.248047 -0.169922,-0.392578 -0.556641,-0.392578 -0.515625,0 -0.779297,0.222656 -0.263671,0.222656 -0.498046,0.685547 l 0.01172,2.021484 q 0.451172,0.691407 0.978516,0.691407 0.351562,0 0.5625,-0.164063 0.216797,-0.164062 0.333984,-0.603516 0.123047,-0.445312 0.123047,-1.21289 z m -3.439453,-1.21875 v -0.152344 q 0,-0.515625 -0.128906,-1.353516 l 1.335937,-0.152343 q 0.07617,0.205078 0.117188,0.591797 0.474609,-0.527344 1.476562,-0.527344 2.138672,0 2.138672,2.695312 0,0.521485 -0.04102,0.931641 -0.04102,0.404297 -0.146485,0.791016 -0.105469,0.380859 -0.292969,0.65625 -0.1875,0.27539 -0.46289,0.486328 -0.275391,0.205078 -0.679688,0.310547 -0.404297,0.09961 -0.925781,0.09961 -0.65625,0 -1.03125,-0.398438 0.0059,0.08203 0.03516,0.322266 0.03516,0.240234 0.04687,0.386719 v 0.533203 q 0,0.644531 0.08203,1.441406 l -1.453125,0.04102 q -0.08203,-0.667969 -0.08203,-1.517578 z"
       style="font-weight:bold;fill:#ff6800"
       id="path7331" />
    <path
       d="m 49.234596,41.449219 q 0.796875,-0.140625 1.992188,-0.140625 -0.02344,-0.550782 -0.292969,-0.826172 -0.263672,-0.275391 -0.673828,-0.275391 -0.433594,0 -0.714844,0.357422 -0.28125,0.357422 -0.310547,0.884766 z m 1.013672,-2.431641 q 1.341797,0 1.921875,0.814453 0.585938,0.814453 0.585938,2.373047 l -0.0059,0.251953 q -2.566406,0.03516 -3.515625,0.222656 0.07031,0.486329 0.404297,0.832032 0.339844,0.339843 0.744141,0.339843 0.439453,0 0.703125,-0.146484 0.269531,-0.146484 0.597656,-0.498047 l 1.042969,0.914063 q -0.246094,0.27539 -0.427735,0.427734 -0.18164,0.152344 -0.457031,0.28125 -0.269531,0.128906 -0.621094,0.175781 -0.351562,0.05273 -0.873046,0.05273 -1.236329,0 -1.933594,-0.837891 -0.691406,-0.84375 -0.691406,-2.244141 0,-1.30664 0.662109,-2.132812 0.662109,-0.826172 1.863281,-0.826172 z"
       style="font-weight:bold;fill:#ff6800"
       id="path7333" />
    <path
       d="m 55.457253,39.568359 q 0.251953,-0.228515 0.767578,-0.404297 0.521484,-0.175781 0.990234,-0.175781 0.779297,0 1.265625,0.333985 0.492188,0.333984 0.492188,1.013671 v 3.035157 q 0,0.128906 0.03516,0.228515 0.04101,0.09961 0.140625,0.181641 0.09961,0.08203 0.158203,0.123047 0.06445,0.04102 0.222656,0.123047 0.04102,0.02344 0.06445,0.03516 l -0.679687,1.171875 q -0.240235,-0.07617 -0.462891,-0.1875 -0.216797,-0.111328 -0.445312,-0.292969 -0.228516,-0.18164 -0.369141,-0.451172 -0.134766,-0.27539 -0.134766,-0.603515 v -2.794922 q 0,-0.357422 -0.105468,-0.527344 -0.09961,-0.175781 -0.375,-0.175781 -0.298828,0 -0.720703,0.175781 -0.416016,0.169922 -0.767579,0.480469 V 45 h -1.470703 v -4.136719 q 0,-0.509765 -0.02344,-0.808594 -0.01758,-0.304687 -0.04687,-0.451171 -0.0293,-0.146485 -0.117188,-0.486329 l 1.359375,-0.28125 q 0.181641,0.433594 0.222657,0.732422 z"
       style="font-weight:bold;fill:#ff6800"
       id="path7335" />
    <path
       d="m 66.789284,41.484375 h 4.611328 v 0.914062 h -4.611328 z"
       style="font-size:12px;font-family:'FantasqueSansMono Nerd Font';-inkscape-font-specification:'FantasqueSansMono Nerd Font, Normal';fill:#ffdb00"
       id="path7337" />
    <path
       d="m 75.929909,41.835937 q 0.03516,0.05273 0.28125,0.439454 0.246094,0.386718 0.339844,0.539062 0.09961,0.152344 0.287109,0.439453 0.1875,0.28125 0.310547,0.451172 0.128906,0.169922 0.222656,0.28125 0.01172,0.01172 0.07031,0.06445 0.05859,0.05273 0.09375,0.08789 0.04102,0.0293 0.09961,0.07617 0.06445,0.04687 0.128906,0.08203 0.07031,0.0293 0.140625,0.04687 l -0.345703,0.785156 q -0.246094,-0.03516 -0.474609,-0.18164 -0.222657,-0.146485 -0.38086,-0.339844 -0.5625,-0.615235 -1.822265,-2.736328 -0.451172,-0.04687 -1.324219,-0.19336 L 73.562721,45 H 72.63694 v -6.521484 q 0,-0.580079 -0.0293,-1.025391 0.919922,-0.08789 1.277344,-0.08789 0.498047,0 0.826172,0.01758 0.333984,0.01172 0.708984,0.07031 0.375,0.05273 0.638672,0.158203 0.263672,0.09961 0.521484,0.28125 0.263672,0.175781 0.47461,0.433594 0.216797,0.269531 0.351562,0.632812 0.134766,0.357422 0.134766,0.714844 0,1.898438 -1.611328,2.162109 z m 0.703125,-2.080078 q 0,-0.515625 -0.333985,-0.896484 -0.287109,-0.333984 -0.832031,-0.462891 -0.544922,-0.134765 -1.552734,-0.134765 -0.199219,0 -0.369141,0.0059 l 0.01172,2.519531 q 0.146484,0.0293 0.503906,0.105469 0.357422,0.07031 0.580078,0.105469 0.222657,0.0293 0.439453,0.0293 0.146485,0 0.28711,-0.01758 0.339844,-0.04102 0.550781,-0.105469 0.210938,-0.07031 0.386719,-0.205078 0.175781,-0.134766 0.251953,-0.363282 0.07617,-0.228515 0.07617,-0.580078 z"
       style="font-size:12px;font-family:'FantasqueSansMono Nerd Font';-inkscape-font-specification:'FantasqueSansMono Nerd Font, Normal';fill:#ffdb00"
       id="path7339" />
    <path
       d="m 86.342018,38.25 h -0.175781 q -0.199219,0 -0.263672,0.01172 0.0059,0.146484 0.0059,0.503906 0,0.175781 -0.0059,0.568359 0,0.386719 0,0.591797 0,1.980469 -0.02344,4.230469 0.515625,0.01758 1.130859,0.01758 0.410156,0 0.697266,-0.04102 0.292968,-0.04102 0.574218,-0.164062 0.28711,-0.123047 0.492188,-0.369141 0.205078,-0.246093 0.345703,-0.626953 0.07031,-0.1875 0.111328,-0.515625 0.04687,-0.328125 0.04687,-0.580078 0,-0.714844 -0.158203,-1.382812 -0.152344,-0.673829 -0.433594,-1.083985 -0.28125,-0.404297 -0.55664,-0.638672 Q 87.853737,38.53125 87.408424,38.390625 86.968971,38.25 86.342018,38.25 Z m -1.40039,6.017578 q 0,-0.08789 0.0059,-0.826172 0.01172,-0.738281 0.01758,-1.769531 0.01172,-1.037109 0.01172,-1.845703 v -0.433594 q 0,-1.230469 -0.07617,-1.957031 0.773437,-0.07617 1.318359,-0.07617 1.177735,0 1.921875,0.363281 0.75,0.357422 1.300782,1.154297 0.36914,0.539063 0.568359,1.277344 0.199219,0.732422 0.199219,1.517578 0,0.556641 -0.123047,1.171875 -0.199219,0.990234 -0.820313,1.546875 -0.621093,0.550781 -1.458984,0.626953 -0.451172,0.04102 -0.943359,0.04102 -0.222657,0 -0.902344,-0.02344 -0.679688,-0.01758 -1.03711,-0.01758 0,-0.1875 0.01758,-0.75 z"
       style="font-size:12px;font-family:'FantasqueSansMono Nerd Font';-inkscape-font-specification:'FantasqueSansMono Nerd Font, Normal';fill:#ffdb00"
       id="path7341" />
    <path
       d="m 94.57444,43.740234 q 0.521484,-0.492187 0.521484,-1.845703 0,0 0,-0.105469 -0.01172,-0.878906 -0.351562,-1.40625 -0.339844,-0.527343 -1.072266,-0.527343 -0.445312,0 -0.761718,0.169922 -0.310547,0.169921 -0.486329,0.498046 -0.175781,0.328125 -0.257812,0.75 -0.07617,0.416016 -0.07617,0.978516 0,0.867188 0.380859,1.353516 0.38086,0.480468 1.107422,0.480468 0.333985,-0.0059 0.550782,-0.08203 0.222656,-0.07617 0.445312,-0.263672 z m -1.007812,1.253907 q -1.171875,-0.0059 -1.78711,-0.726563 -0.615234,-0.726562 -0.615234,-1.986328 0,-0.533203 0.07031,-1.001953 0.07617,-0.47461 0.246094,-0.902344 0.175781,-0.433594 0.433594,-0.744141 0.263672,-0.310546 0.662109,-0.492187 0.398438,-0.1875 0.896485,-0.1875 0.84375,0 1.365234,0.292969 0.527344,0.287109 0.84375,0.884765 0.345703,0.667969 0.345703,1.6875 0,0.527344 -0.07617,0.978516 -0.07031,0.445312 -0.246094,0.861328 -0.175781,0.410156 -0.451171,0.703125 -0.269532,0.287109 -0.697266,0.462891 -0.427734,0.169922 -0.978516,0.169922 z"
       style="font-size:12px;font-family:'FantasqueSansMono Nerd Font';-inkscape-font-specification:'FantasqueSansMono Nerd Font, Normal';fill:#ffdb00"
       id="path7343" />
    <path
       d="m 98.301003,41.912109 q 0,0.445313 0.07031,0.802735 0.07617,0.357422 0.181641,0.585937 0.105468,0.228516 0.27539,0.392578 0.175782,0.158203 0.322266,0.240235 0.152344,0.08203 0.363281,0.128906 0.210938,0.04102 0.333985,0.05273 0.128906,0.0059 0.310542,0.0059 h 0.0762 q 0.63867,0 1.01953,-0.228516 0.38086,-0.234375 0.63867,-0.662109 l 0.73828,0.533203 q -0.0117,0.01172 -0.10547,0.146484 -0.0879,0.128906 -0.16992,0.216797 -0.0762,0.08789 -0.22266,0.240234 -0.14648,0.152344 -0.32226,0.257813 -0.16992,0.09961 -0.39844,0.205078 -0.22266,0.09961 -0.52148,0.158203 -0.29883,0.05273 -0.63282,0.05273 -0.580074,0 -1.048824,-0.09375 -0.462891,-0.09375 -0.84375,-0.375 Q 97.820534,44.150391 97.592018,43.5 q -0.222656,-0.65625 -0.222656,-1.587891 0,-0.796875 0.1875,-1.353515 0.1875,-0.5625 0.568359,-0.890625 0.38086,-0.333985 0.896485,-0.480469 0.521484,-0.152344 1.236324,-0.152344 0.8086,0 1.3418,0.410156 0.4043,0.310547 0.66797,0.931641 l -0.90234,0.351563 q -0.0293,-0.105469 -0.0586,-0.175782 -0.0234,-0.07617 -0.11133,-0.205078 -0.0879,-0.128906 -0.20507,-0.205078 -0.11133,-0.08203 -0.32227,-0.146484 -0.21094,-0.06445 -0.47461,-0.06445 -0.978515,0 -1.435546,0.46875 -0.457031,0.46875 -0.457031,1.511718 z"
       style="font-size:12px;font-family:'FantasqueSansMono Nerd Font';-inkscape-font-specification:'FantasqueSansMono Nerd Font, Normal';fill:#ffdb00"
       id="path7345" />
    <path
       d="m 108.47288,45.058594 q -0.21094,-0.152344 -0.33399,-0.251953 -0.11718,-0.105469 -0.25195,-0.298829 -0.13477,-0.199218 -0.19336,-0.433593 -0.41601,0.427734 -0.87305,0.667968 -0.45703,0.234375 -1.0664,0.246094 h -0.0527 q -0.85547,0 -1.21289,-0.246094 -0.65625,-0.451171 -0.65625,-0.996093 -0.006,-0.351563 -0.006,-1.013672 0,-0.66211 -0.006,-1.148438 0,-0.486328 -0.0117,-1.019531 -0.0117,-0.539062 -0.041,-0.890625 -0.0234,-0.357422 -0.0703,-0.498047 l 0.9375,-0.158203 q 0.0352,0.152344 0.0586,0.445313 0.0234,0.287109 0.0293,0.791015 0.0117,0.498047 0.0117,0.890625 0.006,0.392578 0.006,1.177735 0.006,0.779296 0.006,1.21289 0.0469,0.263672 0.29296,0.445313 0.14649,0.105468 0.6211,0.105468 0.56836,-0.02344 0.93164,-0.246093 0.0176,-0.01172 0.14062,-0.08203 0.12305,-0.07031 0.16993,-0.09961 0.0469,-0.0293 0.15234,-0.111328 0.11133,-0.08203 0.16992,-0.146484 0.0645,-0.07031 0.14063,-0.181641 0.0762,-0.111328 0.1289,-0.234375 v -3.960938 h 0.92578 v 4.576172 q 0.0117,0.357422 0.53321,0.773438 z"
       style="font-size:12px;font-family:'FantasqueSansMono Nerd Font';-inkscape-font-specification:'FantasqueSansMono Nerd Font, Normal';fill:#ffdb00"
       id="path7347" />
    <path
       d="m 113.85764,38.988281 q 0.29883,0 0.50977,0.181641 0.21094,0.175781 0.31055,0.46289 0.0996,0.28125 0.13476,0.533204 0.041,0.251953 0.041,0.503906 v 3.064453 q 0,0.205078 0.16406,0.369141 0.16406,0.158203 0.375,0.240234 l -0.35742,0.779297 q -0.16992,-0.03516 -0.33399,-0.117188 -0.16406,-0.08203 -0.32226,-0.222656 -0.15235,-0.140625 -0.25196,-0.375 -0.0937,-0.234375 -0.0937,-0.527344 v -0.01172 -3.322266 -0.07617 q 0,-0.585937 -0.375,-0.585937 -0.46289,0 -0.94921,1.060546 V 45 h -0.82618 v -4.722656 q 0,-0.111328 -0.0117,-0.181641 -0.0117,-0.07031 -0.082,-0.140625 -0.0645,-0.07031 -0.1875,-0.07031 -0.24023,0 -0.52148,0.257812 -0.27539,0.257813 -0.52734,0.808594 V 45 h -0.82618 l -0.0176,-4.775391 q 0,-0.621093 -0.17579,-1.125 l 0.87891,-0.234375 q 0.0645,0.128907 0.11719,0.451172 0.0527,0.322266 0.0644,0.544922 0.21094,-0.363281 0.55078,-0.615234 0.34571,-0.257813 0.65625,-0.257813 0.4043,0 0.65039,0.269531 0.25196,0.269532 0.25196,0.603516 0.47461,-0.873047 1.15429,-0.873047 z"
       style="font-size:12px;font-family:'FantasqueSansMono Nerd Font';-inkscape-font-specification:'FantasqueSansMono Nerd Font, Normal';fill:#ffdb00"
       id="path7349" />
    <path
       d="m 116.96897,41.601562 q 1.86914,-0.01172 3.09375,-0.152343 -0.0703,-0.703125 -0.48047,-1.119141 -0.40429,-0.421875 -1.00781,-0.421875 -0.7207,0 -1.16016,0.498047 -0.43945,0.492187 -0.44531,1.195312 z m 1.59961,-2.583984 q 0.45703,0 0.82617,0.128906 0.375,0.128907 0.6211,0.328125 0.24609,0.199219 0.43359,0.486328 0.1875,0.28125 0.28711,0.556641 0.0996,0.269531 0.1582,0.580078 0.0645,0.310547 0.082,0.527344 0.0176,0.216797 0.0176,0.427734 0,0.205078 -0.006,0.251953 -2.61914,0.175782 -4.01953,0.19336 0,0.726562 0.42188,1.195312 0.42773,0.46875 1.27734,0.46875 0.5625,0 0.94922,-0.234375 0.38672,-0.234375 0.60937,-0.544922 l 0.72071,0.638672 q -0.12891,0.140625 -0.20508,0.216797 -0.0703,0.07617 -0.30469,0.257813 -0.22851,0.175781 -0.45117,0.28125 -0.22266,0.09961 -0.58594,0.193359 -0.36328,0.08789 -0.75586,0.08789 -1.27148,0 -1.93945,-0.832032 -0.66211,-0.832031 -0.66211,-2.25 0,-1.30664 0.66211,-2.132812 0.66211,-0.826172 1.86328,-0.826172 z"
       style="font-size:12px;font-family:'FantasqueSansMono Nerd Font';-inkscape-font-specification:'FantasqueSansMono Nerd Font, Normal';fill:#ffdb00"
       id="path7351" />
    <path
       d="m 123.37913,39.568359 q 0.56836,-0.298828 1.00781,-0.427734 0.43945,-0.128906 0.91406,-0.128906 0.27539,0 0.57422,0.08789 0.29883,0.08789 0.5625,0.246094 0.26953,0.158203 0.43945,0.421875 0.17579,0.257813 0.17579,0.568359 v 3.427735 q 0,0.128906 0.0352,0.228515 0.041,0.09961 0.14063,0.181641 0.0996,0.08203 0.1582,0.123047 0.0645,0.04102 0.22266,0.123047 0.0176,0.01172 0.0234,0.01758 0.006,0 0.0176,0.0059 0.0117,0.0059 0.0234,0.01172 l -0.49219,0.65625 q -0.24023,-0.117187 -0.39258,-0.210937 -0.14648,-0.09375 -0.32226,-0.246094 -0.16992,-0.158203 -0.25781,-0.369141 -0.082,-0.210937 -0.082,-0.480469 v -3.287109 q 0,-0.298828 -0.31054,-0.462891 -0.30469,-0.164062 -0.64453,-0.164062 -0.26368,0 -0.66797,0.158203 -0.4043,0.152344 -1.125,0.498047 V 45 l -0.92578,0.0059 v -4.136718 q 0,-0.509766 -0.0234,-0.808594 -0.0176,-0.304688 -0.0469,-0.451172 -0.0293,-0.146484 -0.11718,-0.486328 l 0.9375,-0.216797 q 0.11132,0.269531 0.17578,0.662109 z"
       style="font-size:12px;font-family:'FantasqueSansMono Nerd Font';-inkscape-font-specification:'FantasqueSansMono Nerd Font, Normal';fill:#ffdb00"
       id="path7353" />
    <path
       d="m 130.11155,42.439453 v 0.234375 q 0,1.347656 0.86133,1.435547 0.1582,0.01758 0.63281,0.01758 0.65039,0 0.90234,-0.140625 0.31641,-0.169922 0.48047,-0.609375 l 0.73828,0.328125 q 0,0.0059 -0.0234,0.07031 -0.0176,0.05859 -0.0352,0.09375 -0.0117,0.0293 -0.041,0.105468 -0.0293,0.07031 -0.0644,0.123047 -0.0293,0.05273 -0.082,0.134766 -0.0469,0.07617 -0.10547,0.140625 -0.0586,0.06445 -0.13476,0.140625 -0.0703,0.07031 -0.16407,0.140625 -0.0937,0.07031 -0.19922,0.128906 -0.42773,0.251953 -1.25976,0.251953 -0.35742,0 -0.60938,-0.01758 -0.24609,-0.01758 -0.50976,-0.07617 -0.26367,-0.05859 -0.45117,-0.164062 -0.18164,-0.105469 -0.35157,-0.28125 -0.16406,-0.181641 -0.28711,-0.439453 -0.22851,-0.46875 -0.22851,-1.365235 v -0.251953 q 0.0117,-0.316406 0.0293,-1.142578 0.0234,-0.826172 0.041,-1.365234 h -0.082 q -0.24023,0 -0.48047,0.06445 l -0.11719,-0.855469 q 0.1875,-0.07031 0.59766,-0.07031 h 0.0879 q 0,-0.205078 0,-0.685546 0.006,-0.480469 0.006,-0.685547 l 0.92578,0.0059 q 0,0.539063 -0.0117,1.335938 h 0.71485 l 1.75195,-0.01172 h 0.10547 v 0.861328 h -1.85742 q -0.13477,0 -0.35157,0.01172 -0.21093,0.0059 -0.3457,0.0059 -0.0293,0.691406 -0.0527,1.529297 -0.0234,0.832031 -0.0293,1.001953 z"
       style="font-size:12px;font-family:'FantasqueSansMono Nerd Font';-inkscape-font-specification:'FantasqueSansMono Nerd Font, Normal';fill:#ffdb00"
       id="path7355" />
    <path
       d="m 135.78928,41.666016 q -0.67968,-0.363282 -0.67968,-1.253907 0.006,-0.714843 0.57422,-1.078125 0.56835,-0.363281 1.40625,-0.363281 0.61523,0 1.2539,0.210938 0.63867,0.205078 0.97266,0.615234 l -0.66211,0.650391 q -0.22852,-0.263672 -0.66211,-0.433594 -0.42774,-0.175781 -0.82031,-0.175781 -0.49805,0 -0.82032,0.140625 -0.32226,0.140625 -0.32226,0.410156 0,0.205078 0.082,0.322265 0.0879,0.117188 0.26953,0.199219 0.25195,0.105469 0.58594,0.228516 0.33398,0.117187 0.56836,0.199219 0.24023,0.08203 0.51562,0.199218 0.28125,0.111328 0.46875,0.222657 0.19336,0.105468 0.38672,0.263671 0.19336,0.158204 0.30469,0.339844 0.11719,0.181641 0.1875,0.433594 0.0703,0.251953 0.0703,0.556641 0,0.662109 -0.38086,1.083984 -0.38086,0.421875 -0.91406,0.5625 -0.50391,0.117187 -1.01367,0.117187 -1.10156,0 -1.67578,-0.539062 -0.57422,-0.544922 -0.57422,-1.511719 l 0.91992,0.0059 q 0,1.207031 1.3125,1.207031 0.58594,0 1.00195,-0.246094 0.41602,-0.251953 0.41602,-0.708984 0,-0.257813 -0.11719,-0.416016 -0.11719,-0.164062 -0.38672,-0.369141 -0.24023,-0.175781 -1.11914,-0.451171 -0.87305,-0.275391 -1.14844,-0.421875 z"
       style="font-size:12px;font-family:'FantasqueSansMono Nerd Font';-inkscape-font-specification:'FantasqueSansMono Nerd Font, Normal';fill:#ffdb00"
       id="path7357" />
  </g>
</svg>
