<svg viewBox="0 0 128 72" xmlns="http://www.w3.org/2000/svg">
  <defs>
    <linearGradient id="ss-mask-gradient" gradientTransform="rotate(90)">
      <stop offset="50%" stop-color="white" />
      <stop offset="100%" stop-color="black" />
    </linearGradient>

    <mask id="ss-gradient-mask">
      <rect x="0" y="0" width="128" height="72" fill="url(#ss-mask-gradient)"  />
    </mask>
  </defs>

  <path d="M61.498 123.072c-.117-.03-.94-.117-1.835-.205-2.82-.28-4.406-.544-6.977-1.16-2.247-.559-5.493-1.645-7.343-2.468-1.6-.72-4.289-2.056-5.111-2.555-.514-.309-.97-.573-.999-.573-.25 0-4.024-2.688-5.772-4.098-1.321-1.072-5.889-5.713-7.02-7.138-2.996-3.774-5.625-8.356-7.314-12.777-.22-.558-.455-1.16-.514-1.322-.162-.367-.587-1.615-.749-2.203-.059-.235-.19-.705-.279-1.028a51.304 51.304 0 0 1-1.175-5.434c-.72-4.538-.72-12.308.015-16.89.734-4.67 2.07-8.87 4.186-13.218.528-1.072.587-1.395.367-1.615-.177-.177-3.305-6.36-3.936-7.785-1.38-3.098-2.688-6.873-3.114-8.958-.088-.397-.22-1.043-.308-1.425-.191-.91-.191-3.76.014-4.391.309-.94.602-1.484 1.131-2.071 1.484-1.645 4.582-1.91 9.062-.764.896.22 2.247.632 2.643.808.162.059.588.22.955.338.764.235 2.717 1.013 3.672 1.439.367.162.954.426 1.322.588 1.38.602 5.977 2.952 6.858 3.51.265.161.573.044 2.482-.882a177.07 177.07 0 0 1 2.482-1.19c.162-.058.47-.175.705-.278.22-.088.573-.235.808-.323.22-.103.529-.22.69-.294.441-.176 2.85-.955 3.525-1.131 3.1-.822 4.95-1.16 8.034-1.498 1.821-.19 9.311-.19 11.044 0 2.1.235 3.643.44 4.274.587.323.06.984.206 1.469.309.822.161 1.924.44 2.937.72.25.073.602.176.808.22.206.059.5.161.66.22.162.074.794.294 1.396.5 1.924.631 3.114 1.13 5.655 2.379.895.44 1.733.793 1.894.793.147 0 .705-.25 1.234-.544 1.263-.69 5.786-2.966 6.638-3.334.367-.161 1.058-.455 1.542-.675.485-.22 1.278-.544 1.763-.72.484-.19 1.013-.396 1.175-.455.161-.073.896-.323 1.615-.558 4.45-1.469 7.814-1.733 9.9-.808.675.309 1.556 1.131 1.85 1.748.631 1.336.837 3.319.514 5.14-.28 1.528-.47 2.468-.588 2.85-.059.205-.19.66-.293 1.028a18.53 18.53 0 0 1-.588 1.835c-.059.162-.19.53-.294.808-.103.28-.235.661-.308.852-.074.176-.191.485-.28.69-.073.206-.205.514-.278.705-.162.411-.485 1.16-.896 2.086-.661 1.483-3.598 7.24-3.833 7.49-.235.25-.133.778.279 1.498.602 1.043 1.953 3.907 2.364 5.038.103.279.25.646.309.807.058.162.19.529.293.808.103.28.235.646.294.808.059.161.191.587.294.955.103.367.235.822.294 1.028.793 2.555 1.277 5.11 1.762 9.238.382 3.26.118 9.09-.602 13.085-.485 2.718-1.953 7.755-2.776 9.62-.147.323-.382.881-.543 1.234-.617 1.498-2.35 4.788-3.26 6.183-.295.455-.588.925-.676 1.043-.47.764-2.174 3.128-2.424 3.363-.044.044-.367.44-.734.881-1.748 2.145-4.289 4.685-6.389 6.404-1.836 1.498-5.61 4.17-5.874 4.17-.06 0-.368.192-.705.412-1 .676-4.597 2.438-6.345 3.099-.881.352-1.748.69-1.91.749-.161.073-.528.19-.807.279-.28.088-.837.264-1.249.397-.396.132-.969.293-1.248.367-.279.058-.778.19-1.101.264-.867.235-3.393.75-4.406.91-2.82.412-9.37.72-10.355.485zm8.666-1.645c.528-.088 1.38-.22 1.909-.308.529-.088 1.19-.206 1.468-.25.28-.03.75-.132 1.029-.205.279-.074.851-.206 1.248-.294.411-.103.896-.22 1.101-.294.206-.059.661-.19 1.029-.294 1.865-.528 4.038-1.336 6.095-2.261 1.204-.558 1.292-.588 2.79-1.41 2.012-1.102 5.566-3.378 6.315-4.068.162-.147.69-.559 1.175-.926 2.16-1.615 6.932-6.712 8.592-9.179.28-.397.617-.866.764-1.013.147-.162.264-.353.264-.412 0-.073.25-.514.558-.969 1.043-1.527 2.996-5.317 3.716-7.182.073-.19.206-.514.294-.734.102-.235.22-.543.293-.705.368-.91 1.278-3.965 1.616-5.434 1.542-6.77 1.674-13.394.411-20.047-.382-1.998-.734-3.334-1.513-5.728-1.028-3.173-3.01-7.638-3.392-7.638-.088 0-.294.25-.456.559-.235.44-.279.631-.146.91.073.206.264.661.426 1.028.381.91.484 1.175.69 1.763.103.279.235.646.294.807.132.294.631 1.851.866 2.644.191.661.705 2.82.881 3.745.661 3.54.808 5.052.808 9.033 0 4.097-.117 5.448-.808 9.179-.293 1.586-1.204 4.979-1.468 5.463a1.27 1.27 0 0 0-.133.47c0 .103-.132.558-.308.984-.176.44-.367.926-.426 1.087-.411 1.101-.881 2.144-1.689 3.745-.881 1.763-1.307 2.556-1.704 3.114-.161.205-.279.426-.279.47 0 .117-1.762 2.76-1.909 2.878-.044.044-.25.309-.44.588-.191.279-.397.543-.441.587-.044.044-.308.367-.588.735-.279.367-.66.822-.837 1.013-.176.19-.705.793-1.175 1.322-1.086 1.248-4.053 4.024-5.331 5.008-.367.279-.69.543-.734.587-.044.06-.47.368-.955.705a39.19 39.19 0 0 0-1.248.896c-.206.162-.412.309-.47.309-.059 0-.5.264-.999.602-1.674 1.101-6.976 3.804-7.476 3.804-.088 0-.44.132-.793.279-.763.352-2.1.808-3.26 1.116-.485.132-1.116.308-1.395.397-1.733.484-4.318.954-7.05 1.292-1.615.19-8.225.19-9.59 0-3.584-.529-4.098-.617-5.978-1.057-2.1-.485-3.246-.852-6.168-1.91-2.056-.749-5.567-2.511-7.784-3.906-1.469-.926-3.995-2.732-4.627-3.305a14.623 14.623 0 0 0-.91-.734c-.69-.514-4.759-4.612-5.728-5.758-.352-.41-.587-.616-.543-.47.044.133.132.25.19.25.06 0 .22.191.353.44.147.236.338.515.44.618.103.102.28.323.397.499.573.822 1.704 2.07 3.51 3.877 2.115 2.1 3.217 3.085 4.73 4.215.513.382.969.735 1.013.779.147.19 2.32 1.6 3.745 2.453 3.334 1.967 7.857 3.891 11.456 4.86 2.379.632 3.906.955 5.727 1.19.647.088 1.601.22 2.13.294 1.19.176 9.135.088 10.428-.103zm-4.67-11.059c3.685-.529 4.067-.602 7.02-1.395.822-.22 2.335-.72 2.863-.94.162-.059.529-.206.808-.308 1.278-.47 3.598-1.572 5.508-2.63.852-.47 3.642-2.305 4.156-2.716.132-.118.808-.647 1.498-1.19 1.307-1.043 4.45-4.112 5.596-5.493 1.615-1.924 3.055-3.995 4.42-6.389.764-1.321 2.468-4.964 2.468-5.257 0-.103.059-.25.117-.338.059-.074.206-.397.309-.72.102-.323.235-.72.308-.881.059-.162.191-.588.294-.955a45.138 45.138 0 0 1 .396-1.321c.118-.368.265-.926.338-1.249.059-.323.206-1.087.338-1.689.543-2.732.837-5.552.837-8.077 0-1.66-.294-5.038-.558-6.536-.103-.573-.117-.588-.617-.514-.279.044-1.101.058-1.836.044-1.938-.044-4.45-.925-6.961-2.424-.5-.308-.955-.558-.984-.558-.103 0-1.513-1.013-3.07-2.188-1.747-1.336-4.391-3.848-5.845-5.58a72.836 72.836 0 0 0-1.131-1.337c-.749-.75-2.981-4.215-3.804-5.934-1.204-2.482-1.615-3.95-1.63-5.772 0-2.717 1.44-4.156 4.156-4.156.661.015 1.601.117 2.086.235 2.188.573 2.188.117 0-1.116-.28-.162-.764-.44-1.058-.617-.969-.558-3.172-1.66-3.862-1.939-.367-.147-.852-.352-1.102-.455-2.026-.881-4.993-1.762-7.71-2.291-1.704-.323-2.659-.426-5.273-.602-5.992-.382-11.94.47-17.198 2.452-.617.235-.822.309-1.645.647-.999.41-4.156 1.982-5.037 2.526-4.098 2.482-7.182 5.037-10.046 8.283-3.084 3.495-5.42 7.152-7.109 11.089-.117.279-.352.822-.528 1.204-.162.382-.309.764-.309.837 0 .059-.117.44-.279.837-.367.955-.998 3.084-1.307 4.465-.94 4.098-1.292 9.106-.91 12.954.264 2.629.763 5.39 1.321 7.387.088.323.22.793.28 1.028.16.588.587 1.836.748 2.203.06.162.235.588.368.955 1.204 3.246 3.363 7.108 5.566 9.987 1.894 2.482 5.184 5.948 6.8 7.152.308.22.69.529.852.676.47.44 4.097 2.864 5.11 3.407 2.586 1.44 5.024 2.512 7.667 3.363 2.982.984 4.509 1.307 8.298 1.822 1.38.19 8.034.205 9.282.014zM99.037 58.95c.631-.176.837-.338 1.703-1.41.382-.47 2.615-3.833 2.615-3.936 0-.044.117-.264.279-.47.25-.367.396-.602 1.204-2.041.176-.309.367-.617.426-.705.073-.074.323-.515.558-.955.25-.44.676-1.234.97-1.762.91-1.645 3.025-6.022 3.025-6.242 0-.044.132-.397.308-.779s.367-.837.44-1.013a30.96 30.96 0 0 1 .265-.661c.191-.44.955-2.82 1.16-3.569.456-1.733.838-4.48.69-5.008-.117-.426-.132-.426-.176-.059-.058.47-.308 1.777-.514 2.644-.161.675-.91 3.07-1.145 3.598-.059.162-.235.587-.367.955-.441 1.175-3.32 7.137-4.083 8.445-.191.323-.544.954-.793 1.395-.896 1.645-2.291 3.877-3.892 6.286-2.497 3.745-3.085 4.435-4.098 4.89-.396.177-.676.382-.631.456.117.176 1.277.147 2.056-.06zm-3.143-1.645c1.278-.632 3.025-2.805 7.314-9.15 1.057-1.557 1.909-2.864 1.909-2.908 0-.059.264-.484.588-.954.323-.47.587-.896.587-.926 0-.044.25-.5.558-.998 2.027-3.364 3.819-7.124 4.685-9.9.206-.645.426-1.306.485-1.468.059-.161.19-.822.279-1.469.264-1.85-.118-3.245-1.087-4.068-.793-.675-2.893-.91-4.832-.529-1.336.25-4.142 1.058-5.214 1.498-.528.206-.998.382-1.072.382-.059 0-.44.133-.822.309-.382.176-.823.367-.984.426-.162.073-1.85.88-3.746 1.82-3.128 1.528-3.994 1.998-5.757 2.997-.308.176-.778.44-1.028.602-1.689.97-2.423 1.425-2.893 1.85-.294.25-1.219.94-2.07 1.513-2.233 1.498-2.718 1.998-3.056 3.202-.235.793-.22 1.395.03 2.555.484 2.189 1.219 3.79 2.878 6.242 1.572 2.306 2.864 3.745 5.097 5.67 1.365 1.174 3.98 3.069 4.259 3.069.058 0 .279.132.484.308.309.25.544.28 1.616.25.837-.03 1.425-.147 1.792-.323zM22.02 47.979c-1.028-1.836-3.099-5.904-3.774-7.402-.132-.309-.28-.529-.338-.485-.044.044 0 .25.088.455.103.206.235.514.309.705.616 1.513 2.952 6.272 3.583 7.3.265.426.323.47.367.235.03-.147-.073-.514-.235-.808zm2.38-2.291c1.248-1.983 5.654-6.83 7.813-8.592.455-.367.925-.764 1.057-.881.779-.705 3.672-2.761 4.407-3.143.514-.265.616-.588.22-.72a8.2 8.2 0 0 1-.852-.44c-1.939-1.146-8.019-4.215-8.372-4.215-.044 0-.396-.133-.778-.309-.866-.382-1.146-.5-1.792-.72l-.807-.293c-1.19-.485-2.556-.808-4.51-1.087-2.893-.411-4.493.426-4.758 2.497-.161 1.321.088 2.996.75 4.978.234.735.293.867.704 1.836.132.28.338.808.485 1.16.617 1.557 2.526 5.126 4.274 8.02 1.483 2.438 1.571 2.57 1.66 2.57.043 0 .264-.294.499-.661zm-6.521-6.022c0-.117-.059-.22-.147-.22-.074 0-.147.103-.147.22 0 .118.073.22.147.22.088 0 .147-.102.147-.22z" fill="#ac010e" mask="url(#ss-gradient-mask)" />
</svg>
